<svg width="400" height="300" viewBox="0 0 400 300" xmlns="http://www.w3.org/2000/svg">
  <defs>
    <linearGradient id="bg" x1="0%" y1="0%" x2="100%" y2="100%">
      <stop offset="0%" style="stop-color:#1a1a2e;stop-opacity:1" />
      <stop offset="50%" style="stop-color:#16213e;stop-opacity:1" />
      <stop offset="100%" style="stop-color:#0f3460;stop-opacity:1" />
    </linearGradient>
    <linearGradient id="screen" x1="0%" y1="0%" x2="100%" y2="100%">
      <stop offset="0%" style="stop-color:#00d4ff;stop-opacity:0.3" />
      <stop offset="100%" style="stop-color:#0099cc;stop-opacity:0.1" />
    </linearGradient>
    <filter id="glow">
      <feGaussianBlur stdDeviation="2" result="coloredBlur"/>
      <feMerge> 
        <feMergeNode in="coloredBlur"/>
        <feMergeNode in="SourceGraphic"/>
      </feMerge>
    </filter>
  </defs>
  
  <!-- Background -->
  <rect width="400" height="300" fill="url(#bg)"/>
  
  <!-- Digital overlay pattern -->
  <g opacity="0.3">
    <rect x="50" y="40" width="300" height="2" fill="#00d4ff"/>
    <rect x="70" y="50" width="250" height="1" fill="#00d4ff"/>
    <rect x="60" y="60" width="280" height="2" fill="#00d4ff"/>
    <rect x="80" y="70" width="200" height="1" fill="#00d4ff"/>
    
    <rect x="50" y="200" width="280" height="2" fill="#00d4ff"/>
    <rect x="70" y="210" width="230" height="1" fill="#00d4ff"/>
    <rect x="60" y="220" width="260" height="2" fill="#00d4ff"/>
    <rect x="90" y="230" width="180" height="1" fill="#00d4ff"/>
  </g>
  
  <!-- Professional silhouette -->
  <g transform="translate(150,80)">
    <!-- Head -->
    <ellipse cx="50" cy="30" rx="25" ry="30" fill="rgba(255,255,255,0.9)"/>
    <!-- Hoodie -->
    <path d="M 25 50 Q 25 45 30 45 L 70 45 Q 75 45 75 50 L 75 120 Q 75 125 70 125 L 30 125 Q 25 125 25 120 Z" fill="rgba(255,255,255,0.8)"/>
    <!-- Hood -->
    <path d="M 20 45 Q 50 20 80 45 Q 75 35 50 30 Q 25 35 20 45" fill="rgba(255,255,255,0.7)"/>
  </g>
  
  <!-- Glasses reflection -->
  <g transform="translate(185,100)">
    <circle cx="0" cy="0" r="8" fill="none" stroke="#00d4ff" stroke-width="2" opacity="0.8"/>
    <circle cx="20" cy="0" r="8" fill="none" stroke="#00d4ff" stroke-width="2" opacity="0.8"/>
    <line x1="8" y1="0" x2="12" y2="0" stroke="#00d4ff" stroke-width="2" opacity="0.8"/>
  </g>
  
  <!-- Screen glow -->
  <rect x="50" y="100" width="120" height="80" fill="url(#screen)" opacity="0.6"/>
  
  <!-- Data charts -->
  <g transform="translate(280,60)" opacity="0.7">
    <rect x="0" y="20" width="4" height="30" fill="#00d4ff"/>
    <rect x="6" y="15" width="4" height="35" fill="#00d4ff"/>
    <rect x="12" y="25" width="4" height="25" fill="#00d4ff"/>
    <rect x="18" y="10" width="4" height="40" fill="#00d4ff"/>
    <rect x="24" y="18" width="4" height="32" fill="#00d4ff"/>
  </g>
  
  <!-- Data charts right side -->
  <g transform="translate(320,150)" opacity="0.7">
    <rect x="0" y="15" width="3" height="25" fill="#00d4ff"/>
    <rect x="5" y="20" width="3" height="20" fill="#00d4ff"/>
    <rect x="10" y="10" width="3" height="30" fill="#00d4ff"/>
    <rect x="15" y="25" width="3" height="15" fill="#00d4ff"/>
    <rect x="20" y="18" width="3" height="22" fill="#00d4ff"/>
  </g>
  
  <!-- Floating data elements -->
  <g opacity="0.5">
    <circle cx="80" cy="120" r="2" fill="#00d4ff">
      <animate attributeName="opacity" values="0.5;1;0.5" dur="2s" repeatCount="indefinite"/>
    </circle>
    <circle cx="300" cy="100" r="2" fill="#00d4ff">
      <animate attributeName="opacity" values="1;0.5;1" dur="2.5s" repeatCount="indefinite"/>
    </circle>
    <circle cx="120" cy="80" r="2" fill="#00d4ff">
      <animate attributeName="opacity" values="0.5;1;0.5" dur="3s" repeatCount="indefinite"/>
    </circle>
  </g>
  
  <!-- Scanning lines -->
  <g opacity="0.4">
    <rect x="0" y="0" width="400" height="1" fill="#00d4ff">
      <animateTransform attributeName="transform" type="translate" values="0,-10;0,310;0,-10" dur="4s" repeatCount="indefinite"/>
    </rect>
  </g>
  
  <!-- Digital noise overlay -->
  <rect width="400" height="300" fill="url(#screen)" opacity="0.1"/>
</svg>