<svg width="400" height="400" viewBox="0 0 400 400" xmlns="http://www.w3.org/2000/svg">
  <defs>
    <radialGradient id="lockGrad" cx="50%" cy="50%" r="50%">
      <stop offset="0%" style="stop-color:#00d4ff;stop-opacity:1" />
      <stop offset="100%" style="stop-color:#0099cc;stop-opacity:0.8" />
    </radialGradient>
    <radialGradient id="bgGrad" cx="50%" cy="50%" r="80%">
      <stop offset="0%" style="stop-color:#00d4ff;stop-opacity:0.1" />
      <stop offset="100%" style="stop-color:#00d4ff;stop-opacity:0" />
    </radialGradient>
    <filter id="glow">
      <feGaussianBlur stdDeviation="3" result="coloredBlur"/>
      <feMerge> 
        <feMergeNode in="coloredBlur"/>
        <feMergeNode in="SourceGraphic"/>
      </feMerge>
    </filter>
  </defs>
  
  <!-- Background glow -->
  <circle cx="200" cy="200" r="180" fill="url(#bgGrad)" opacity="0.6"/>
  
  <!-- Outer circuit rings -->
  <circle cx="200" cy="200" r="160" fill="none" stroke="#00d4ff" stroke-width="1" opacity="0.4"/>
  <circle cx="200" cy="200" r="140" fill="none" stroke="#00d4ff" stroke-width="1" opacity="0.3"/>
  
  <!-- Circuit lines radiating from center -->
  <g stroke="#00d4ff" stroke-width="2" opacity="0.5">
    <line x1="200" y1="60" x2="200" y2="100"/>
    <line x1="340" y1="200" x2="300" y2="200"/>
    <line x1="200" y1="340" x2="200" y2="300"/>
    <line x1="60" y1="200" x2="100" y2="200"/>
    
    <line x1="284" y1="116" x2="260" y2="140"/>
    <line x1="284" y1="284" x2="260" y2="260"/>
    <line x1="116" y1="284" x2="140" y2="260"/>
    <line x1="116" y1="116" x2="140" y2="140"/>
  </g>
  
  <!-- Circuit nodes -->
  <g fill="#00d4ff">
    <circle cx="200" cy="80" r="3"/>
    <circle cx="320" cy="200" r="3"/>
    <circle cx="200" cy="320" r="3"/>
    <circle cx="80" cy="200" r="3"/>
  </g>
  
  <!-- Main lock body -->
  <rect x="160" y="180" width="80" height="60" rx="8" fill="url(#lockGrad)" filter="url(#glow)"/>
  
  <!-- Lock shackle -->
  <path d="M 175 180 Q 175 150 200 150 Q 225 150 225 180" 
        fill="none" stroke="#00d4ff" stroke-width="6" filter="url(#glow)"/>
  
  <!-- Lock center circle -->
  <circle cx="200" cy="210" r="8" fill="#ffffff" opacity="0.9"/>
  
  <!-- Circuit board pattern inside lock -->
  <g stroke="#ffffff" stroke-width="1" opacity="0.6">
    <rect x="165" y="190" width="10" height="4"/>
    <rect x="225" y="190" width="10" height="4"/>
    <rect x="165" y="220" width="10" height="4"/>
    <rect x="225" y="220" width="10" height="4"/>
  </g>
  
  <!-- Data streams -->
  <g stroke="#00d4ff" stroke-width="2" opacity="0.7">
    <path d="M 200 40 L 200 50 L 210 55 L 200 60 L 190 55 L 200 50"/>
    <path d="M 360 200 L 350 200 L 345 190 L 340 200 L 345 210 L 350 200"/>
    <path d="M 200 360 L 200 350 L 190 345 L 200 340 L 210 345 L 200 350"/>
    <path d="M 40 200 L 50 200 L 55 210 L 60 200 L 55 190 L 50 200"/>
  </g>
  
  <!-- Animated elements -->
  <g>
    <circle cx="200" cy="200" r="90" fill="none" stroke="#00d4ff" stroke-width="1" opacity="0.2">
      <animateTransform attributeName="transform" type="rotate" values="0 200 200;360 200 200" dur="20s" repeatCount="indefinite"/>
    </circle>
    <circle cx="200" cy="200" r="110" fill="none" stroke="#00d4ff" stroke-width="1" opacity="0.1">
      <animateTransform attributeName="transform" type="rotate" values="360 200 200;0 200 200" dur="25s" repeatCount="indefinite"/>
    </circle>
  </g>
</svg>